<?xml version="1.0" encoding="utf-8"?>
<!-- Generator: Adobe Illustrator 16.0.0, SVG Export Plug-In . SVG Version: 6.00 Build 0)  -->
<!DOCTYPE svg PUBLIC "-//W3C//DTD SVG 1.1//EN" "http://www.w3.org/Graphics/SVG/1.1/DTD/svg11.dtd">
<svg version="1.1" id="Capa_1" xmlns="http://www.w3.org/2000/svg" xmlns:xlink="http://www.w3.org/1999/xlink" x="0px" y="0px"
	 width="612px" height="792px" viewBox="0 0 612 792" enable-background="new 0 0 612 792" xml:space="preserve">
<path fill="#FFFFFF" d="M610.571,281.079c0.019-0.031,0.043-0.056,0.062-0.087c0.039-0.063,0.069-0.129,0.107-0.194
	c0.094-0.157,0.184-0.315,0.266-0.478c0.057-0.109,0.108-0.219,0.158-0.329c0.072-0.155,0.139-0.31,0.202-0.468
	c0.051-0.126,0.096-0.253,0.14-0.38c0.049-0.145,0.097-0.29,0.139-0.438c0.042-0.146,0.079-0.292,0.112-0.439
	c0.031-0.133,0.061-0.267,0.085-0.402c0.03-0.165,0.056-0.329,0.076-0.495c0.015-0.123,0.03-0.248,0.04-0.374
	c0.016-0.179,0.023-0.357,0.027-0.535c0.003-0.077,0.013-0.151,0.013-0.228c0-0.046-0.006-0.091-0.008-0.137
	c-0.002-0.169-0.013-0.338-0.024-0.507c-0.01-0.136-0.019-0.273-0.035-0.408c-0.017-0.139-0.041-0.277-0.063-0.415
	c-0.026-0.158-0.052-0.317-0.085-0.472c-0.025-0.113-0.058-0.224-0.086-0.335c-0.046-0.172-0.09-0.345-0.145-0.513
	c-0.033-0.103-0.074-0.204-0.111-0.305c-0.062-0.169-0.122-0.336-0.193-0.5c-0.049-0.114-0.106-0.223-0.162-0.334
	c-0.07-0.144-0.138-0.289-0.215-0.429c-0.075-0.134-0.157-0.262-0.239-0.393c-0.069-0.112-0.135-0.224-0.209-0.331
	c-0.099-0.143-0.206-0.28-0.312-0.418c-0.069-0.09-0.136-0.181-0.209-0.269c-0.111-0.133-0.23-0.259-0.351-0.386
	c-0.081-0.086-0.16-0.175-0.245-0.258c-0.111-0.109-0.23-0.212-0.348-0.316c-0.107-0.096-0.216-0.191-0.328-0.281
	c-0.103-0.083-0.211-0.16-0.317-0.237c-0.141-0.103-0.28-0.203-0.427-0.297c-0.037-0.024-0.07-0.053-0.108-0.076l-76.65-47.906
	c-0.053-0.033-0.106-0.058-0.159-0.089c-0.106-0.063-0.21-0.128-0.319-0.187c-0.067-0.036-0.134-0.069-0.201-0.103
	c-0.107-0.055-0.217-0.105-0.327-0.156c-0.087-0.041-0.174-0.083-0.264-0.121c-0.062-0.026-0.124-0.049-0.187-0.073
	c-0.146-0.057-0.292-0.11-0.439-0.159c-0.054-0.018-0.104-0.042-0.159-0.059c-0.017-0.005-0.034-0.008-0.05-0.013
	c-0.053-0.016-0.105-0.029-0.157-0.044c-0.172-0.05-0.343-0.092-0.516-0.132c-0.065-0.014-0.13-0.035-0.196-0.048
	c-0.043-0.008-0.086-0.012-0.129-0.02c-0.175-0.033-0.35-0.059-0.526-0.082c-0.126-0.016-0.251-0.031-0.378-0.042
	c-0.154-0.013-0.308-0.021-0.463-0.025c-0.146-0.004-0.294-0.008-0.44-0.006c-0.134,0.002-0.267,0.01-0.401,0.018
	c-0.053,0.003-0.105,0.003-0.158,0.007c-0.034,0.002-0.069,0.001-0.104,0.004c-0.073,0.007-0.146,0.021-0.217,0.029
	c-0.124,0.015-0.247,0.034-0.37,0.053c-0.041,0.006-0.082,0.011-0.121,0.018c-0.056,0.01-0.11,0.013-0.164,0.024
	c-0.067,0.013-0.132,0.032-0.198,0.047c-0.123,0.026-0.245,0.059-0.368,0.09c-0.153,0.04-0.306,0.08-0.455,0.128
	c-0.132,0.042-0.262,0.089-0.391,0.137c-0.096,0.035-0.193,0.064-0.286,0.103c-0.04,0.016-0.078,0.037-0.117,0.054
	c-0.141,0.059-0.277,0.125-0.414,0.19c-0.093,0.045-0.188,0.087-0.281,0.135c-0.01,0.005-0.021,0.008-0.029,0.015L384.93,293.582
	l-81.56-99.685c-0.004-0.005-0.008-0.009-0.012-0.014c-0.025-0.031-0.051-0.061-0.078-0.092c-0.063-0.076-0.133-0.144-0.199-0.217
	c-0.127-0.142-0.254-0.284-0.391-0.417c-0.079-0.078-0.167-0.148-0.249-0.223c-0.13-0.119-0.259-0.238-0.396-0.35
	c-0.13-0.104-0.27-0.199-0.405-0.297c-0.011-0.007-0.021-0.015-0.031-0.022c-0.09-0.063-0.176-0.133-0.268-0.194
	c-0.138-0.091-0.285-0.17-0.429-0.254c-0.109-0.063-0.216-0.131-0.327-0.19c-0.134-0.07-0.275-0.129-0.415-0.193
	c-0.128-0.059-0.254-0.123-0.384-0.176c-0.125-0.05-0.254-0.09-0.382-0.134c-0.152-0.054-0.303-0.11-0.458-0.156
	c-0.02-0.006-0.039-0.014-0.058-0.019c-0.137-0.04-0.273-0.063-0.41-0.096c-0.124-0.029-0.246-0.062-0.371-0.086
	c-0.053-0.009-0.104-0.021-0.157-0.031L29.723,142.833c-0.088-0.016-0.176-0.02-0.265-0.033c-0.162-0.024-0.322-0.047-0.484-0.062
	c-0.148-0.014-0.294-0.021-0.442-0.027c-0.14-0.006-0.28-0.011-0.42-0.011c-0.16,0-0.32,0.006-0.479,0.016
	c-0.129,0.007-0.26,0.017-0.389,0.028c-0.161,0.016-0.32,0.037-0.478,0.062c-0.131,0.021-0.262,0.043-0.393,0.068
	c-0.151,0.03-0.299,0.064-0.448,0.103c-0.138,0.035-0.276,0.073-0.412,0.115c-0.138,0.042-0.272,0.087-0.407,0.137
	c-0.143,0.051-0.283,0.105-0.423,0.164c-0.129,0.054-0.255,0.112-0.382,0.172c-0.137,0.065-0.272,0.132-0.406,0.204
	c-0.13,0.071-0.257,0.145-0.383,0.222c-0.121,0.073-0.242,0.147-0.36,0.226c-0.139,0.094-0.273,0.192-0.406,0.292
	c-0.069,0.053-0.144,0.098-0.212,0.153c-0.032,0.025-0.059,0.054-0.091,0.08c-0.134,0.11-0.262,0.228-0.391,0.346
	c-0.092,0.085-0.187,0.169-0.275,0.257c-0.115,0.115-0.222,0.237-0.331,0.358c-0.09,0.101-0.182,0.199-0.266,0.302
	c-0.096,0.117-0.185,0.242-0.274,0.365c-0.084,0.114-0.17,0.227-0.248,0.342c-0.082,0.124-0.154,0.251-0.23,0.38
	c-0.074,0.125-0.151,0.247-0.218,0.374c-0.067,0.127-0.126,0.26-0.187,0.391c-0.063,0.135-0.129,0.27-0.186,0.407
	c-0.053,0.127-0.096,0.259-0.143,0.389c-0.053,0.148-0.108,0.297-0.152,0.448c-0.037,0.125-0.067,0.254-0.1,0.382
	c-0.041,0.163-0.082,0.325-0.113,0.489c-0.008,0.042-0.021,0.083-0.028,0.125c-0.017,0.091-0.022,0.181-0.035,0.271
	c-0.022,0.158-0.045,0.316-0.06,0.476c-0.015,0.148-0.021,0.296-0.028,0.443c-0.006,0.141-0.011,0.283-0.011,0.424
	c0,0.158,0.007,0.315,0.016,0.472c0.007,0.133,0.017,0.265,0.03,0.398c0.015,0.158,0.037,0.313,0.061,0.469
	c0.02,0.134,0.044,0.269,0.07,0.401c0.03,0.148,0.063,0.294,0.102,0.441c0.036,0.14,0.074,0.279,0.116,0.418
	c0.042,0.135,0.087,0.269,0.135,0.402c0.051,0.143,0.105,0.285,0.164,0.425c0.054,0.128,0.111,0.255,0.171,0.381
	c0.064,0.137,0.132,0.272,0.204,0.406c0.069,0.13,0.145,0.256,0.22,0.383c0.073,0.122,0.147,0.243,0.228,0.362
	c0.092,0.138,0.19,0.271,0.29,0.402c0.053,0.07,0.098,0.145,0.154,0.214l57.31,71.637H8.982c-0.082,0-0.159,0.01-0.24,0.012
	c-0.165,0.005-0.331,0.012-0.496,0.025c-0.145,0.012-0.289,0.029-0.431,0.047c-0.14,0.018-0.28,0.04-0.419,0.063
	c-0.158,0.027-0.313,0.061-0.468,0.097c-0.125,0.029-0.248,0.061-0.371,0.096c-0.159,0.044-0.315,0.092-0.471,0.146
	c-0.121,0.041-0.241,0.085-0.36,0.132c-0.147,0.058-0.292,0.117-0.435,0.182c-0.127,0.057-0.252,0.119-0.377,0.182
	c-0.128,0.065-0.255,0.133-0.38,0.205c-0.133,0.076-0.263,0.156-0.393,0.238c-0.111,0.072-0.221,0.145-0.328,0.22
	c-0.132,0.092-0.26,0.189-0.387,0.29c-0.103,0.082-0.202,0.164-0.3,0.249c-0.119,0.103-0.236,0.208-0.35,0.317
	c-0.104,0.1-0.204,0.201-0.303,0.306c-0.098,0.103-0.194,0.208-0.288,0.317c-0.109,0.127-0.213,0.257-0.315,0.39
	c-0.049,0.063-0.102,0.12-0.149,0.185c-0.028,0.039-0.049,0.078-0.076,0.116c-0.103,0.146-0.198,0.296-0.292,0.447
	c-0.063,0.103-0.129,0.206-0.188,0.31c-0.083,0.147-0.158,0.298-0.234,0.45c-0.057,0.116-0.116,0.232-0.169,0.35
	c-0.062,0.141-0.116,0.286-0.171,0.431c-0.05,0.133-0.103,0.266-0.147,0.401c-0.043,0.133-0.079,0.27-0.116,0.406
	c-0.042,0.151-0.084,0.302-0.116,0.454c-0.027,0.126-0.047,0.254-0.069,0.381c-0.029,0.167-0.058,0.333-0.077,0.501
	c-0.015,0.121-0.021,0.243-0.03,0.366c-0.013,0.176-0.024,0.354-0.026,0.529c-0.004,0.047-0.01,0.092-0.01,0.14
	c0,0.082,0.01,0.159,0.012,0.24c0.004,0.165,0.011,0.331,0.025,0.496c0.012,0.145,0.029,0.288,0.047,0.431
	c0.018,0.142,0.04,0.282,0.064,0.42c0.028,0.157,0.061,0.312,0.097,0.467c0.03,0.125,0.061,0.25,0.096,0.374
	c0.044,0.158,0.092,0.312,0.145,0.467c0.042,0.123,0.086,0.244,0.134,0.365c0.056,0.145,0.116,0.289,0.179,0.43
	c0.059,0.129,0.121,0.258,0.185,0.385c0.065,0.125,0.131,0.25,0.2,0.373c0.077,0.135,0.159,0.268,0.243,0.4
	c0.069,0.109,0.141,0.217,0.215,0.322c0.094,0.133,0.192,0.264,0.293,0.392c0.08,0.101,0.162,0.2,0.246,0.297
	c0.103,0.12,0.209,0.237,0.321,0.352c0.098,0.103,0.2,0.202,0.304,0.301c0.104,0.098,0.208,0.195,0.319,0.29
	c0.127,0.109,0.257,0.212,0.389,0.314c0.063,0.049,0.12,0.102,0.186,0.149l206.36,150.08l-37.475,243.586
	c-0.005,0.028-0.008,0.058-0.013,0.087l-0.005,0.029c-0.006,0.037-0.006,0.073-0.011,0.11c-0.036,0.255-0.064,0.51-0.079,0.764
	c-0.006,0.101-0.002,0.199-0.005,0.299c-0.003,0.189-0.008,0.381-0.001,0.569c0.006,0.148,0.022,0.294,0.036,0.439
	c0.013,0.14,0.021,0.278,0.041,0.416c0.024,0.171,0.059,0.34,0.092,0.509c0.022,0.112,0.041,0.227,0.068,0.338
	c0.041,0.173,0.092,0.34,0.142,0.509c0.033,0.109,0.062,0.218,0.1,0.326c0.054,0.155,0.116,0.308,0.178,0.461
	c0.048,0.118,0.094,0.238,0.147,0.354c0.06,0.131,0.127,0.258,0.193,0.385c0.069,0.134,0.137,0.268,0.212,0.398
	c0.061,0.105,0.129,0.206,0.194,0.309c0.091,0.145,0.182,0.288,0.282,0.427c0.063,0.087,0.132,0.171,0.198,0.256
	c0.111,0.145,0.223,0.287,0.344,0.425c0.072,0.081,0.15,0.157,0.224,0.238c0.122,0.129,0.243,0.259,0.374,0.381
	c0.097,0.091,0.201,0.176,0.303,0.263c0.115,0.1,0.229,0.2,0.35,0.294c0.147,0.115,0.303,0.219,0.458,0.324
	c0.085,0.058,0.166,0.119,0.251,0.173c0.217,0.137,0.442,0.261,0.672,0.38c0.033,0.017,0.061,0.035,0.094,0.053
	c0.003,0.001,0.007,0.002,0.011,0.004c0.303,0.151,0.616,0.285,0.938,0.403c0.081,0.028,0.162,0.049,0.242,0.075
	c0.22,0.073,0.443,0.143,0.672,0.198c0.151,0.037,0.302,0.063,0.453,0.094c0.112,0.021,0.222,0.052,0.336,0.069
	c0.039,0.006,0.076,0.004,0.114,0.009c0.416,0.059,0.831,0.098,1.246,0.098c0.005,0,0.01-0.001,0.013-0.001c0.001,0,0.003,0,0.005,0
	c0.371,0,0.736-0.031,1.1-0.076c0.072-0.01,0.142-0.019,0.214-0.029c0.741-0.11,1.458-0.312,2.135-0.597
	c0.066-0.027,0.13-0.054,0.195-0.082c0.328-0.146,0.648-0.31,0.956-0.493c0.056-0.034,0.109-0.072,0.164-0.107
	c0.259-0.162,0.508-0.339,0.749-0.525c0.072-0.055,0.144-0.109,0.213-0.166c0.267-0.222,0.521-0.46,0.762-0.713
	c0.06-0.063,0.117-0.13,0.176-0.194c0.242-0.269,0.472-0.548,0.682-0.846c0.006-0.009,0.014-0.018,0.021-0.026
	c0.226-0.325,0.426-0.67,0.609-1.027c0.014-0.028,0.035-0.054,0.049-0.082l65.608-131.219l217.375-94.511
	c0.059-0.024,0.111-0.057,0.169-0.083c0.174-0.081,0.345-0.164,0.514-0.256c0.016-0.008,0.032-0.016,0.049-0.023
	c0.027-0.015,0.056-0.025,0.083-0.041c0.062-0.034,0.119-0.076,0.182-0.112c0.136-0.08,0.27-0.164,0.4-0.252
	c0.086-0.058,0.174-0.111,0.258-0.171c0.032-0.022,0.062-0.049,0.094-0.073c0.099-0.071,0.194-0.147,0.289-0.224
	c0.022-0.019,0.049-0.03,0.072-0.049c0.022-0.02,0.043-0.041,0.065-0.061c0.084-0.069,0.164-0.14,0.244-0.213
	c0.079-0.072,0.156-0.146,0.232-0.22c0.005-0.004,0.01-0.008,0.015-0.013c0.033-0.032,0.069-0.06,0.103-0.094
	c0.025-0.024,0.048-0.051,0.073-0.076c0.06-0.062,0.119-0.125,0.178-0.188c0.074-0.081,0.145-0.165,0.217-0.249
	c0.069-0.08,0.141-0.159,0.207-0.242c0.038-0.048,0.074-0.096,0.111-0.144c0.029-0.038,0.06-0.076,0.089-0.114
	c0.03-0.044,0.059-0.089,0.09-0.132c0.009-0.014,0.018-0.028,0.027-0.041c0.069-0.099,0.142-0.195,0.206-0.296
	c0.021-0.032,0.04-0.063,0.061-0.096c0.069-0.111,0.133-0.227,0.198-0.34c0.061-0.108,0.124-0.214,0.181-0.322
	c0.002-0.005,0.006-0.01,0.008-0.016c0.009-0.017,0.018-0.034,0.025-0.051c0.064-0.128,0.122-0.262,0.181-0.394
	c0.048-0.108,0.1-0.215,0.143-0.325c0.008-0.018,0.016-0.035,0.023-0.054c0.055-0.142,0.101-0.286,0.148-0.431
	c0.007-0.021,0.014-0.041,0.021-0.062c0.008-0.026,0.022-0.05,0.031-0.076l0.035-0.115c0.002-0.002,0.002-0.005,0.003-0.007
	l40.338-127.737h85.169c0.006,0,0.012,0.001,0.017,0.001c0.021,0,0.041-0.003,0.061-0.003c0.332-0.002,0.658-0.024,0.98-0.062
	c0.091-0.011,0.181-0.027,0.271-0.041c0.261-0.039,0.518-0.085,0.77-0.145c0.094-0.021,0.187-0.046,0.278-0.072
	c0.259-0.069,0.512-0.151,0.76-0.243c0.077-0.029,0.156-0.055,0.234-0.086c0.322-0.129,0.637-0.271,0.94-0.436
	c0.007-0.004,0.014-0.01,0.021-0.013c0.286-0.157,0.561-0.332,0.827-0.519c0.101-0.071,0.197-0.146,0.295-0.221
	c0.179-0.135,0.351-0.276,0.518-0.424c0.096-0.085,0.191-0.169,0.283-0.259c0.222-0.213,0.433-0.436,0.63-0.67
	c0.023-0.026,0.047-0.049,0.07-0.076C610.175,281.671,610.378,281.379,610.571,281.079z M511.175,246.608l-45.858,145.219
	l-68.787-84.074L511.175,246.608z M50.081,164.717l233.902,41.768l-66.829,167.072L50.081,164.717z M448.63,399.802l-215.979-16.614
	l66.456-166.137L448.63,399.802z M254.655,493.715l-23.149-92.598l200.628,15.434L254.655,493.715z M238.993,505.135l-39.958,79.917
	l22.833-148.418L238.993,505.135z M171.015,344.642l-134.41-97.753h56.208L171.015,344.642z M531.441,242.088l40.257,25.161h-48.202
	L531.441,242.088z"/>
</svg>
