<?xml version="1.0" encoding="utf-8"?>
<!-- Generator: Adobe Illustrator 16.0.0, SVG Export Plug-In . SVG Version: 6.00 Build 0)  -->
<!DOCTYPE svg PUBLIC "-//W3C//DTD SVG 1.1//EN" "http://www.w3.org/Graphics/SVG/1.1/DTD/svg11.dtd">
<svg version="1.1" id="Layer_1" xmlns="http://www.w3.org/2000/svg" xmlns:xlink="http://www.w3.org/1999/xlink" x="0px" y="0px"
	 width="612px" height="792px" viewBox="0 0 612 792" enable-background="new 0 0 612 792" xml:space="preserve">
<path fill="#FFFFFF" d="M362.524,415.923H239.92v-10.217c0-205.362,45.977-300.38,52.107-310.597L295.092,90h13.282l3.064,6.13
	c5.108,9.195,51.086,104.213,51.086,309.576V415.923L362.524,415.923z M260.354,395.489h81.736
	c-1.021-149.169-26.563-234.992-40.868-270.752C286.918,160.498,261.376,246.32,260.354,395.489z M309.395,105.326L309.395,105.326
	L309.395,105.326L309.395,105.326z"/>
<path fill="#FFFFFF" d="M415.652,702c-2.044,0-4.086,0-5.108,0c-41.891,0-67.433-31.672-74.584-42.911
	c-34.738-41.891-30.651-140.995-14.305-196.167c0-1.021-1.021-3.064-1.021-4.087c-2.044-2.044-12.26-3.063-19.412-3.063l0,0
	c-9.195,0-19.412,1.021-21.456,3.063c0,0-1.021,2.044-1.021,4.087c16.347,55.172,20.435,155.299-14.304,196.167
	c-7.151,10.216-31.672,41.89-74.584,42.911c-1.021,0-2.043,0-5.109,0c-13.282,0-48.021-3.065-75.606-27.586
	c-21.456-20.436-32.695-48.021-32.695-83.78c-1.021-10.217-3.065-68.454,55.172-146.104c5.109-7.152,12.261-11.239,20.435-12.261
	c8.174-1.022,16.347,1.021,23.5,7.15c12.26,10.217,14.304,28.607,5.109,41.891c-45.977,62.323-42.912,104.214-42.912,104.214v3.064
	c0,19.412,4.086,32.695,13.282,40.868c13.282,12.26,34.738,11.238,35.76,11.238h2.044c15.325,0,25.542-15.325,25.542-16.348
	l3.065-4.086l2.044-2.044c9.195-10.217,22.477-70.497,0-143.039v-1.021l-2.044-7.151c0-32.693,16.347-48.021,22.477-54.149
	c24.521-19.413,60.281-17.369,62.324-17.369c1.021,0,35.76-1.021,59.258,17.369c7.151,5.108,22.478,21.456,22.478,54.149v2.044
	l-1.021,7.151c-22.478,72.542-9.195,132.821,0,143.039l3.064,3.064l1.021,2.043c0,0,10.217,15.326,24.521,15.326h2.044
	c1.021,0,22.478,1.021,35.76-11.239c9.195-8.174,13.282-21.455,13.282-39.847v-3.063c0-1.021,3.064-42.912-42.911-105.235
	c-10.217-13.281-7.152-31.673,5.107-41.891c6.131-5.108,15.325-8.175,23.5-7.151c8.175,1.021,16.348,5.109,20.435,12.261
	c57.216,77.648,55.173,135.886,55.173,147.125c0,34.737-11.239,63.347-32.695,82.758C464.694,698.935,428.935,702,415.652,702z
	 M302.244,436.357c8.173,0,24.521,1.021,32.695,8.174c2.044,2.044,7.15,7.15,8.174,19.412v2.043l-1.021,1.021
	c-15.325,50.063-19.412,145.082,9.195,179.82l1.021,1.021c5.109,8.175,24.521,33.717,58.237,33.717c1.021,0,3.064,0,4.086,0
	c11.239,0,39.848-2.045,61.303-22.478c17.369-16.347,26.564-38.825,26.564-69.477c1.021-10.218,2.044-62.323-51.086-133.845
	c-2.044-2.043-4.086-4.086-7.151-4.086c-3.064,0-5.107,0-8.174,2.044c-4.087,3.064-5.109,9.195-2.044,14.305
	c52.107,70.498,46.998,118.519,46.998,119.539v2.044c0,23.5-7.151,41.891-19.412,54.149c-20.435,18.392-50.062,16.349-51.085,16.349
	h-1.021l0,0c-24.521,0-39.848-22.479-41.892-25.543l-2.044-2.043c-14.304-16.349-30.649-81.737-5.107-162.451l1.021-4.086
	c0-23.5-10.217-33.718-15.326-36.781c-15.325-14.305-43.933-13.282-44.955-13.282c-1.021,0-30.651-1.021-49.042,13.282
	c-4.086,3.063-14.304,14.304-15.326,36.781l1.021,4.086c25.542,80.714,9.195,146.104-5.109,162.451l-2.044,3.063
	c-1.021,3.065-16.347,25.542-41.89,25.542h-1.021l0,0c0,0-29.63,2.044-50.063-16.347c-13.282-12.26-20.435-30.65-20.435-55.172
	v-2.044l0,0c0,0-5.109-48.021,46.998-118.519c3.065-4.086,3.065-10.217-2.044-14.304c-2.043-2.044-5.109-3.065-8.174-2.044
	c-3.065,0-5.109,2.044-7.151,4.086c-53.124,71.524-51.08,123.631-51.08,132.826c0,30.65,9.195,54.149,26.565,69.477
	c25.542,23.499,59.258,22.478,65.388,21.455c33.716,0,53.128-26.563,58.237-33.716l1.021-1.021
	c29.63-34.736,25.542-128.733,9.195-179.818l-1.021-2.044V461.9c1.021-8.175,3.065-15.325,8.174-19.412
	C274.657,436.357,293.048,436.357,302.244,436.357C301.222,436.357,302.244,436.357,302.244,436.357z"/>
<path fill="#FFFFFF" d="M311.438,344.404c0,6.13-4.086,10.217-10.215,10.217c-6.13,0-10.217-4.086-10.217-10.217
	c0-6.131,4.086-10.217,10.217-10.217C307.353,334.187,311.438,338.273,311.438,344.404"/>
</svg>
