<?xml version="1.0" encoding="utf-8"?>
<!-- Generator: Adobe Illustrator 16.0.0, SVG Export Plug-In . SVG Version: 6.00 Build 0)  -->
<!DOCTYPE svg PUBLIC "-//W3C//DTD SVG 1.1//EN" "http://www.w3.org/Graphics/SVG/1.1/DTD/svg11.dtd">
<svg version="1.1" id="Layer_1" xmlns="http://www.w3.org/2000/svg" xmlns:xlink="http://www.w3.org/1999/xlink" x="0px" y="0px"
	 width="612px" height="792px" viewBox="0 0 612 792" enable-background="new 0 0 612 792" xml:space="preserve">
<g transform="translate(1 1)">
	<g>
		<path fill="#FFFFFF" d="M497.562,137.733c-9.066-10.2-22.667-14.733-39.667-14.733c-15.866,0-38.533,9.066-51,53.267
			l-27.201,100.867C370.627,266.933,358.16,259,343.427,259c-0.173,0-0.342,0.017-0.515,0.019c-0.207-0.002-0.411-0.019-0.618-0.019
			c-16.498,0-30.15,9.239-38.976,22.144c-0.154-0.187-0.313-0.369-0.469-0.555c-8.778-11.71-21.634-20.275-36.445-21.439
			c-0.132-0.011-0.264-0.027-0.398-0.037c-1.007-0.07-2.022-0.114-3.047-0.114c-0.808,0-1.616,0.03-2.424,0.076
			c-0.347,0.019-0.69,0.05-1.034,0.078c-0.42,0.035-0.84,0.072-1.261,0.118c-0.465,0.051-0.928,0.109-1.387,0.174
			c-0.227,0.033-0.453,0.071-0.679,0.108c-9.667,1.537-18.142,6.289-24.961,12.959l-16.985-116.646
			c-1.133-11.333-3.399-21.534-6.8-29.467c-3.399-9.067-13.6-37.4-44.199-37.4c-12.467,0-24.933,5.667-35.134,17
			c-11.334,11.333-17,27.2-15.866,41.933l21.533,285.6c-29.467,14.733-32.866,36.267-32.866,85v1.133
			c0,47.6,32.866,83.867,45.333,95.199v40.8c0,24.934,20.4,45.334,45.333,45.334h204c24.934,0,45.334-20.4,45.334-45.334v-40.8
			c33.999-46.466,33.999-52.133,33.999-140.532v-21.534l34-271.998C510.028,162.667,506.628,147.934,497.562,137.733z
			 M372.895,315.667v124.666c0,15.867-11.334,34-27.2,34s-29.467-18.133-29.467-34V315.667c0-10.334,4.81-21.625,12.547-28.246
			c3.694-2.846,7.892-4.62,12.386-4.62c13.601,0,24.934,13.6,28.334,26.066c0.901,1.801,1.985,3.418,3.314,4.72
			C372.86,314.283,372.895,314.978,372.895,315.667z M272.379,429.676c2.172-3.426,3.953-6.676,5.315-9.743
			c11.334-23.8,0-57.8-22.667-71.399c-3.478-1.988-10.441-5.281-19.267-5.203v-27.663c0-7.804,3.021-16.152,7.839-22.626
			c4.638-5.36,10.554-9.108,17.095-9.108c13.601,0,24.933,13.601,28.334,26.066c0.915,1.829,2.019,3.468,3.376,4.779
			c0.01,0.296,0.024,0.593,0.024,0.887v124.667c0,15.866-11.333,33.999-27.2,33.999c-6.8,0-13.601-3.399-19.268-10.199
			C258.073,451.157,266.872,439.508,272.379,429.676z M145.095,120.733c5.667-5.667,12.467-9.067,18.133-9.067
			c7.933,0,15.867,2.267,23.8,22.667c2.267,6.8,4.534,14.733,5.667,27.201l21.176,144.887c-0.503,3.081-0.776,6.177-0.776,9.246
			v35.769c-5.574,4.119-11.316,10.105-17,18.631c-7.304,10.042-19.76,28.172-40.319,46.098l-20.881-269.364
			C133.762,137.733,138.294,128.667,145.095,120.733z M486.229,178.534l-33.999,272v1.133v22.667c0,86.133,0,86.133-31.733,129.2
			c-1.134,2.267-2.267,4.534-2.267,6.8v45.334c0,12.467-10.199,22.666-22.667,22.666H191.561c-12.467,0-22.667-10.199-22.667-22.666
			v-45.334c0-3.399-1.133-6.8-3.399-9.066c-1.133,0-40.8-33.999-41.933-80.466c0-54.399,3.399-60.066,27.2-70.267
			c2.363-1.182,4.097-2.986,5.227-5.08c31.37-22.066,48.458-47.658,58.239-61.787c3.31-4.965,7.428-10.192,12.087-13.472
			c1.332-0.117,2.621-0.489,3.779-1.261c1.366-0.683,4.795-2.173,9.036-1.526c1.13,0.337,2.274,0.833,3.43,1.526
			c12.467,6.8,19.268,29.467,13.601,41.933c-5.667,12.467-22.667,35.134-72.533,77.066c-4.534,3.399-5.667,11.334-1.133,15.866
			c2.266,3.399,5.667,4.534,9.066,4.534c2.266,0,5.667-1.134,7.933-3.399c10.764-9.31,20.549-18.092,29.313-26.354
			c10.019,11.558,23.211,18.421,36.421,18.421c16.375,0,30.292-9.105,39.239-21.859c9.453,12.754,23.719,21.859,40.094,21.859
			c29.467,0,51-29.467,49.867-56.666V315.667c0-1.908-0.123-3.826-0.341-5.746c0.132-0.344,0.251-0.695,0.341-1.054l33.998-124.668
			c3.399-13.6,13.601-37.4,29.467-37.4c11.334,0,18.133,2.266,22.667,6.8C485.096,158.133,487.361,167.2,486.229,178.534z"/>
	</g>
</g>
</svg>
